<?xml version="1.0" encoding="UTF-8" standalone="no"?>
<!-- Created with Inkscape (http://www.inkscape.org/) -->

<svg
   xmlns:dc="http://purl.org/dc/elements/1.1/"
   xmlns:cc="http://creativecommons.org/ns#"
   xmlns:rdf="http://www.w3.org/1999/02/22-rdf-syntax-ns#"
   xmlns:svg="http://www.w3.org/2000/svg"
   xmlns="http://www.w3.org/2000/svg"
   xmlns:sodipodi="http://sodipodi.sourceforge.net/DTD/sodipodi-0.dtd"
   xmlns:inkscape="http://www.inkscape.org/namespaces/inkscape"
   version="1.1"
   id="svg845"
   xml:space="preserve"
   width="816"
   height="1056"
   viewBox="0 0 816 1056"
   sodipodi:docname="grey-low-poly-background.svg"
   inkscape:version="0.92.4 (5da689c313, 2019-01-14)"><metadata
     id="metadata851"><rdf:RDF><cc:Work
         rdf:about=""><dc:format>image/svg+xml</dc:format><dc:type
           rdf:resource="http://purl.org/dc/dcmitype/StillImage" /><dc:title></dc:title></cc:Work></rdf:RDF></metadata><defs
     id="defs849"><clipPath
       clipPathUnits="userSpaceOnUse"
       id="clipPath861"><path
         d="M 0,792 H 612 V 0 H 0 Z"
         id="path859"
         inkscape:connector-curvature="0" /></clipPath></defs><sodipodi:namedview
     pagecolor="#ffffff"
     bordercolor="#666666"
     borderopacity="1"
     objecttolerance="10"
     gridtolerance="10"
     guidetolerance="10"
     inkscape:pageopacity="0"
     inkscape:pageshadow="2"
     inkscape:window-width="1920"
     inkscape:window-height="1018"
     id="namedview847"
     showgrid="false"
     inkscape:zoom="0.62209389"
     inkscape:cx="485.49153"
     inkscape:cy="454.16949"
     inkscape:window-x="-8"
     inkscape:window-y="-8"
     inkscape:window-maximized="1"
     inkscape:current-layer="g853" /><g
     id="g853"
     inkscape:groupmode="layer"
     inkscape:label="abstract-307-publicdomainvectors [Converted]"
     transform="matrix(1.3333333,0,0,-1.3333333,0,1056)"><g
       id="g855"><g
         id="g857"
         clip-path="url(#clipPath861)"><path
           d="m 0.105,791.89 v -40.686 c 10.197,10.922 23.647,25.329 37.983,40.686 z"
           style="fill:#9da3aa;fill-opacity:1;fill-rule:nonzero;stroke:none"
           id="path863"
           inkscape:connector-curvature="0" /><path
           d="m 0.105,791.89 v -40.686 c 10.197,10.922 23.647,25.329 37.983,40.686 z"
           style="fill:none;stroke:#9da3aa;stroke-width:1;stroke-linecap:butt;stroke-linejoin:miter;stroke-miterlimit:4;stroke-dasharray:none;stroke-opacity:1"
           id="path865"
           inkscape:connector-curvature="0" /><path
           d="M 38.088,791.89 C 23.752,776.533 10.302,762.126 0.105,751.204 v -26.739 c 33.016,-11.862 98.204,-35.285 98.204,-35.285 0,0 7.638,51.962 15.098,102.71 z"
           style="fill:#90969d;fill-opacity:1;fill-rule:nonzero;stroke:none"
           id="path867"
           inkscape:connector-curvature="0" /><path
           d="M 38.088,791.89 C 23.752,776.533 10.302,762.126 0.105,751.204 v -26.739 c 33.016,-11.862 98.204,-35.285 98.204,-35.285 0,0 7.638,51.962 15.098,102.71 z"
           style="fill:none;stroke:#90969d;stroke-width:1;stroke-linecap:butt;stroke-linejoin:miter;stroke-miterlimit:4;stroke-dasharray:none;stroke-opacity:1"
           id="path869"
           inkscape:connector-curvature="0" /><path
           d="M 113.407,791.89 C 105.947,741.142 98.309,689.18 98.309,689.18 l 190.151,55.629 c 0,0 -23.78,21.1 -53.061,47.081 z"
           style="fill:#878e94;fill-opacity:1;fill-rule:nonzero;stroke:none"
           id="path871"
           inkscape:connector-curvature="0" /><path
           d="M 113.407,791.89 C 105.947,741.142 98.309,689.18 98.309,689.18 l 190.151,55.629 c 0,0 -23.78,21.1 -53.061,47.081 z"
           style="fill:none;stroke:#878e94;stroke-width:1;stroke-linecap:butt;stroke-linejoin:miter;stroke-miterlimit:4;stroke-dasharray:none;stroke-opacity:1"
           id="path873"
           inkscape:connector-curvature="0" /><path
           d="m 235.399,791.89 c 29.281,-25.981 53.061,-47.081 53.061,-47.081 0,0 2.75,23.761 5.45,47.081 z"
           style="fill:#899096;fill-opacity:1;fill-rule:nonzero;stroke:none"
           id="path875"
           inkscape:connector-curvature="0" /><path
           d="m 235.399,791.89 c 29.281,-25.981 53.061,-47.081 53.061,-47.081 0,0 2.75,23.761 5.45,47.081 z"
           style="fill:none;stroke:#899096;stroke-width:1;stroke-linecap:butt;stroke-linejoin:miter;stroke-miterlimit:4;stroke-dasharray:none;stroke-opacity:1"
           id="path877"
           inkscape:connector-curvature="0" /><path
           d="m 293.91,791.89 c -2.7,-23.32 -5.45,-47.081 -5.45,-47.081 l 132.596,-1.275 c 0,0 -32.199,24.515 -63.511,48.356 z"
           style="fill:#798086;fill-opacity:1;fill-rule:nonzero;stroke:none"
           id="path879"
           inkscape:connector-curvature="0" /><path
           d="m 293.91,791.89 c -2.7,-23.32 -5.45,-47.081 -5.45,-47.081 l 132.596,-1.275 c 0,0 -32.199,24.515 -63.511,48.356 z"
           style="fill:none;stroke:#798086;stroke-width:1;stroke-linecap:butt;stroke-linejoin:miter;stroke-miterlimit:4;stroke-dasharray:none;stroke-opacity:1"
           id="path881"
           inkscape:connector-curvature="0" /><path
           d="m 357.545,791.89 c 31.312,-23.841 63.511,-48.356 63.511,-48.356 0,0 -1.333,21.751 -2.963,48.356 z"
           style="fill:#7d848a;fill-opacity:1;fill-rule:nonzero;stroke:none"
           id="path883"
           inkscape:connector-curvature="0" /><path
           d="m 357.545,791.89 c 31.312,-23.841 63.511,-48.356 63.511,-48.356 0,0 -1.333,21.751 -2.963,48.356 z"
           style="fill:none;stroke:#7d848a;stroke-width:1;stroke-linecap:butt;stroke-linejoin:miter;stroke-miterlimit:4;stroke-dasharray:none;stroke-opacity:1"
           id="path885"
           inkscape:connector-curvature="0" /><path
           d="m 418.093,791.89 c 1.63,-26.605 2.963,-48.356 2.963,-48.356 0,0 29.337,22.439 63.218,48.356 z"
           style="fill:#7d848a;fill-opacity:1;fill-rule:nonzero;stroke:none"
           id="path887"
           inkscape:connector-curvature="0" /><path
           d="m 418.093,791.89 c 1.63,-26.605 2.963,-48.356 2.963,-48.356 0,0 29.337,22.439 63.218,48.356 z"
           style="fill:none;stroke:#7d848a;stroke-width:1;stroke-linecap:butt;stroke-linejoin:miter;stroke-miterlimit:4;stroke-dasharray:none;stroke-opacity:1"
           id="path889"
           inkscape:connector-curvature="0" /><path
           d="M 484.274,791.89 C 450.393,765.973 421.056,743.534 421.056,743.534 L 543.57,687.431 c 0,0 12.644,54.972 24.027,104.459 z"
           style="fill:#72797e;fill-opacity:1;fill-rule:nonzero;stroke:none"
           id="path891"
           inkscape:connector-curvature="0" /><path
           d="M 484.274,791.89 C 450.393,765.973 421.056,743.534 421.056,743.534 L 543.57,687.431 c 0,0 12.644,54.972 24.027,104.459 z"
           style="fill:none;stroke:#72797e;stroke-width:1;stroke-linecap:butt;stroke-linejoin:miter;stroke-miterlimit:4;stroke-dasharray:none;stroke-opacity:1"
           id="path893"
           inkscape:connector-curvature="0" /><path
           d="M 612.075,791.89 H 567.597 C 556.214,742.403 543.57,687.431 543.57,687.431 c 0,0 30.533,10.048 68.505,22.543 z"
           style="fill:#727a7f;fill-opacity:1;fill-rule:nonzero;stroke:none"
           id="path895"
           inkscape:connector-curvature="0" /><path
           d="M 612.075,791.89 H 567.597 C 556.214,742.403 543.57,687.431 543.57,687.431 c 0,0 30.533,10.048 68.505,22.543 z"
           style="fill:none;stroke:#727a7f;stroke-width:1;stroke-linecap:butt;stroke-linejoin:miter;stroke-miterlimit:4;stroke-dasharray:none;stroke-opacity:1"
           id="path897"
           inkscape:connector-curvature="0" /><path
           d="m 0.105,603.986 c 5.821,0.565 9.189,0.892 9.189,0.892 0,0 -4.118,18.655 -9.189,41.625 z"
           style="fill:#82898f;fill-opacity:1;fill-rule:nonzero;stroke:none"
           id="path899"
           inkscape:connector-curvature="0" /><path
           d="m 0.105,603.986 c 5.821,0.565 9.189,0.892 9.189,0.892 0,0 -4.118,18.655 -9.189,41.625 z"
           style="fill:none;stroke:#82898f;stroke-width:1;stroke-linecap:butt;stroke-linejoin:miter;stroke-miterlimit:4;stroke-dasharray:none;stroke-opacity:1"
           id="path901"
           inkscape:connector-curvature="0" /><path
           d="m 0.105,646.503 c 5.071,-22.97 9.189,-41.625 9.189,-41.625 l 89.015,84.302 c 0,0 -65.188,23.423 -98.204,35.285 z"
           style="fill:#81878e;fill-opacity:1;fill-rule:nonzero;stroke:none"
           id="path903"
           inkscape:connector-curvature="0" /><path
           d="m 0.105,646.503 c 5.071,-22.97 9.189,-41.625 9.189,-41.625 l 89.015,84.302 c 0,0 -65.188,23.423 -98.204,35.285 z"
           style="fill:none;stroke:#81878e;stroke-width:1;stroke-linecap:butt;stroke-linejoin:miter;stroke-miterlimit:4;stroke-dasharray:none;stroke-opacity:1"
           id="path905"
           inkscape:connector-curvature="0" /><path
           d="M 98.309,689.18 9.294,604.878 96.58,614.224 Z"
           style="fill:#757c81;fill-opacity:1;fill-rule:nonzero;stroke:none"
           id="path907"
           inkscape:connector-curvature="0" /><path
           d="M 98.309,689.18 9.294,604.878 96.58,614.224 Z"
           style="fill:none;stroke:#757c81;stroke-width:1;stroke-linecap:butt;stroke-linejoin:miter;stroke-miterlimit:4;stroke-dasharray:none;stroke-opacity:1"
           id="path909"
           inkscape:connector-curvature="0" /><path
           d="M 98.309,689.18 96.58,614.224 258.332,536.217 Z"
           style="fill:#687075;fill-opacity:1;fill-rule:nonzero;stroke:none"
           id="path911"
           inkscape:connector-curvature="0" /><path
           d="M 98.309,689.18 96.58,614.224 258.332,536.217 Z"
           style="fill:none;stroke:#687075;stroke-width:1;stroke-linecap:butt;stroke-linejoin:miter;stroke-miterlimit:4;stroke-dasharray:none;stroke-opacity:1"
           id="path913"
           inkscape:connector-curvature="0" /><path
           d="M 98.309,689.18 258.332,536.217 288.46,744.809 Z"
           style="fill:#6b7378;fill-opacity:1;fill-rule:nonzero;stroke:none"
           id="path915"
           inkscape:connector-curvature="0" /><path
           d="M 98.309,689.18 258.332,536.217 288.46,744.809 Z"
           style="fill:none;stroke:#6b7378;stroke-width:1;stroke-linecap:butt;stroke-linejoin:miter;stroke-miterlimit:4;stroke-dasharray:none;stroke-opacity:1"
           id="path917"
           inkscape:connector-curvature="0" /><path
           d="M 288.46,744.809 258.332,536.217 414.424,526.833 Z"
           style="fill:#596164;fill-opacity:1;fill-rule:nonzero;stroke:none"
           id="path919"
           inkscape:connector-curvature="0" /><path
           d="M 288.46,744.809 258.332,536.217 414.424,526.833 Z"
           style="fill:none;stroke:#596164;stroke-width:1;stroke-linecap:butt;stroke-linejoin:miter;stroke-miterlimit:4;stroke-dasharray:none;stroke-opacity:1"
           id="path921"
           inkscape:connector-curvature="0" /><path
           d="m 288.46,744.809 125.964,-217.976 6.632,216.701 z"
           style="fill:#61696d;fill-opacity:1;fill-rule:nonzero;stroke:none"
           id="path923"
           inkscape:connector-curvature="0" /><path
           d="m 288.46,744.809 125.964,-217.976 6.632,216.701 z"
           style="fill:none;stroke:#61696d;stroke-width:1;stroke-linecap:butt;stroke-linejoin:miter;stroke-miterlimit:4;stroke-dasharray:none;stroke-opacity:1"
           id="path925"
           inkscape:connector-curvature="0" /><path
           d="M 421.056,743.534 414.424,526.833 543.57,687.431 Z"
           style="fill:#5b6266;fill-opacity:1;fill-rule:nonzero;stroke:none"
           id="path927"
           inkscape:connector-curvature="0" /><path
           d="M 421.056,743.534 414.424,526.833 543.57,687.431 Z"
           style="fill:none;stroke:#5b6266;stroke-width:1;stroke-linecap:butt;stroke-linejoin:miter;stroke-miterlimit:4;stroke-dasharray:none;stroke-opacity:1"
           id="path929"
           inkscape:connector-curvature="0" /><path
           d="M 543.57,687.431 414.424,526.833 609.521,587.532 Z"
           style="fill:#51585b;fill-opacity:1;fill-rule:nonzero;stroke:none"
           id="path931"
           inkscape:connector-curvature="0" /><path
           d="M 543.57,687.431 414.424,526.833 609.521,587.532 Z"
           style="fill:none;stroke:#51585b;stroke-width:1;stroke-linecap:butt;stroke-linejoin:miter;stroke-miterlimit:4;stroke-dasharray:none;stroke-opacity:1"
           id="path933"
           inkscape:connector-curvature="0" /><path
           d="M 612.075,709.974 C 574.103,697.479 543.57,687.431 543.57,687.431 l 65.951,-99.899 c 0,0 0.898,1.035 2.554,2.946 z"
           style="fill:#60676b;fill-opacity:1;fill-rule:nonzero;stroke:none"
           id="path935"
           inkscape:connector-curvature="0" /><path
           d="M 612.075,709.974 C 574.103,697.479 543.57,687.431 543.57,687.431 l 65.951,-99.899 c 0,0 0.898,1.035 2.554,2.946 z"
           style="fill:none;stroke:#60676b;stroke-width:1;stroke-linecap:butt;stroke-linejoin:miter;stroke-miterlimit:4;stroke-dasharray:none;stroke-opacity:1"
           id="path937"
           inkscape:connector-curvature="0" /><path
           d="m 612.075,590.478 c -1.656,-1.911 -2.554,-2.946 -2.554,-2.946 0,0 0.896,-0.011 2.554,-0.033 z"
           style="fill:#596164;fill-opacity:1;fill-rule:nonzero;stroke:none"
           id="path939"
           inkscape:connector-curvature="0" /><path
           d="m 612.075,590.478 c -1.656,-1.911 -2.554,-2.946 -2.554,-2.946 0,0 0.896,-0.011 2.554,-0.033 z"
           style="fill:none;stroke:#596164;stroke-width:1;stroke-linecap:butt;stroke-linejoin:miter;stroke-miterlimit:4;stroke-dasharray:none;stroke-opacity:1"
           id="path941"
           inkscape:connector-curvature="0" /><path
           d="m 0.105,561.913 c 5.342,24.975 9.189,42.965 9.189,42.965 0,0 -3.368,-0.327 -9.189,-0.892 z"
           style="fill:#6e757b;fill-opacity:1;fill-rule:nonzero;stroke:none"
           id="path943"
           inkscape:connector-curvature="0" /><path
           d="m 0.105,561.913 c 5.342,24.975 9.189,42.965 9.189,42.965 0,0 -3.368,-0.327 -9.189,-0.892 z"
           style="fill:none;stroke:#6e757b;stroke-width:1;stroke-linecap:butt;stroke-linejoin:miter;stroke-miterlimit:4;stroke-dasharray:none;stroke-opacity:1"
           id="path945"
           inkscape:connector-curvature="0" /><path
           d="m 0.105,416.866 c 47.089,6.318 129.633,17.393 129.633,17.393 L 9.294,604.878 c 0,0 -3.847,-17.99 -9.189,-42.965 z"
           style="fill:#5d6568;fill-opacity:1;fill-rule:nonzero;stroke:none"
           id="path947"
           inkscape:connector-curvature="0" /><path
           d="m 0.105,416.866 c 47.089,6.318 129.633,17.393 129.633,17.393 L 9.294,604.878 c 0,0 -3.847,-17.99 -9.189,-42.965 z"
           style="fill:none;stroke:#5d6568;stroke-width:1;stroke-linecap:butt;stroke-linejoin:miter;stroke-miterlimit:4;stroke-dasharray:none;stroke-opacity:1"
           id="path949"
           inkscape:connector-curvature="0" /><path
           d="M 9.294,604.878 129.738,434.259 96.58,614.224 Z"
           style="fill:#646b6f;fill-opacity:1;fill-rule:nonzero;stroke:none"
           id="path951"
           inkscape:connector-curvature="0" /><path
           d="M 9.294,604.878 129.738,434.259 96.58,614.224 Z"
           style="fill:none;stroke:#646b6f;stroke-width:1;stroke-linecap:butt;stroke-linejoin:miter;stroke-miterlimit:4;stroke-dasharray:none;stroke-opacity:1"
           id="path953"
           inkscape:connector-curvature="0" /><path
           d="M 96.58,614.224 129.738,434.259 258.332,536.217 Z"
           style="fill:#596164;fill-opacity:1;fill-rule:nonzero;stroke:none"
           id="path955"
           inkscape:connector-curvature="0" /><path
           d="M 96.58,614.224 129.738,434.259 258.332,536.217 Z"
           style="fill:none;stroke:#596164;stroke-width:1;stroke-linecap:butt;stroke-linejoin:miter;stroke-miterlimit:4;stroke-dasharray:none;stroke-opacity:1"
           id="path957"
           inkscape:connector-curvature="0" /><path
           d="M 258.332,536.217 129.738,434.259 261.858,376.094 Z"
           style="fill:#43494b;fill-opacity:1;fill-rule:nonzero;stroke:none"
           id="path959"
           inkscape:connector-curvature="0" /><path
           d="M 258.332,536.217 129.738,434.259 261.858,376.094 Z"
           style="fill:none;stroke:#43494b;stroke-width:1;stroke-linecap:butt;stroke-linejoin:miter;stroke-miterlimit:4;stroke-dasharray:none;stroke-opacity:1"
           id="path961"
           inkscape:connector-curvature="0" /><path
           d="m 258.332,536.217 3.526,-160.123 152.566,150.739 z"
           style="fill:#43494b;fill-opacity:1;fill-rule:nonzero;stroke:none"
           id="path963"
           inkscape:connector-curvature="0" /><path
           d="m 258.332,536.217 3.526,-160.123 152.566,150.739 z"
           style="fill:none;stroke:#43494b;stroke-width:1;stroke-linecap:butt;stroke-linejoin:miter;stroke-miterlimit:4;stroke-dasharray:none;stroke-opacity:1"
           id="path965"
           inkscape:connector-curvature="0" /><path
           d="M 414.424,526.833 261.858,376.094 459.457,446.75 Z"
           style="fill:#353b3b;fill-opacity:1;fill-rule:nonzero;stroke:none"
           id="path967"
           inkscape:connector-curvature="0" /><path
           d="M 414.424,526.833 261.858,376.094 459.457,446.75 Z"
           style="fill:none;stroke:#353b3b;stroke-width:1;stroke-linecap:butt;stroke-linejoin:miter;stroke-miterlimit:4;stroke-dasharray:none;stroke-opacity:1"
           id="path969"
           inkscape:connector-curvature="0" /><path
           d="m 414.424,526.833 45.033,-80.083 94.329,16.22 z"
           style="fill:#3a4041;fill-opacity:1;fill-rule:nonzero;stroke:none"
           id="path971"
           inkscape:connector-curvature="0" /><path
           d="m 414.424,526.833 45.033,-80.083 94.329,16.22 z"
           style="fill:none;stroke:#3a4041;stroke-width:1;stroke-linecap:butt;stroke-linejoin:miter;stroke-miterlimit:4;stroke-dasharray:none;stroke-opacity:1"
           id="path973"
           inkscape:connector-curvature="0" /><path
           d="M 414.424,526.833 553.786,462.97 609.521,587.532 Z"
           style="fill:#444a4c;fill-opacity:1;fill-rule:nonzero;stroke:none"
           id="path975"
           inkscape:connector-curvature="0" /><path
           d="M 414.424,526.833 553.786,462.97 609.521,587.532 Z"
           style="fill:none;stroke:#444a4c;stroke-width:1;stroke-linecap:butt;stroke-linejoin:miter;stroke-miterlimit:4;stroke-dasharray:none;stroke-opacity:1"
           id="path977"
           inkscape:connector-curvature="0" /><path
           d="m 612.075,584.625 c -1.657,1.885 -2.554,2.907 -2.554,2.907 L 553.786,462.97 c 0,0 25.329,-5.877 58.289,-13.526 z"
           style="fill:#3d4243;fill-opacity:1;fill-rule:nonzero;stroke:none"
           id="path979"
           inkscape:connector-curvature="0" /><path
           d="m 612.075,584.625 c -1.657,1.885 -2.554,2.907 -2.554,2.907 L 553.786,462.97 c 0,0 25.329,-5.877 58.289,-13.526 z"
           style="fill:none;stroke:#3d4243;stroke-width:1;stroke-linecap:butt;stroke-linejoin:miter;stroke-miterlimit:4;stroke-dasharray:none;stroke-opacity:1"
           id="path981"
           inkscape:connector-curvature="0" /><path
           d="m 612.075,587.499 c -1.658,0.022 -2.554,0.033 -2.554,0.033 0,0 0.897,-1.022 2.554,-2.907 z"
           style="fill:#444a4c;fill-opacity:1;fill-rule:nonzero;stroke:none"
           id="path983"
           inkscape:connector-curvature="0" /><path
           d="m 612.075,587.499 c -1.658,0.022 -2.554,0.033 -2.554,0.033 0,0 0.897,-1.022 2.554,-2.907 z"
           style="fill:none;stroke:#444a4c;stroke-width:1;stroke-linecap:butt;stroke-linejoin:miter;stroke-miterlimit:4;stroke-dasharray:none;stroke-opacity:1"
           id="path985"
           inkscape:connector-curvature="0" /><path
           d="m 0.105,234.805 c 51.163,9.466 125.782,23.271 125.782,23.271 0,0 -79.693,78.07 -125.782,123.22 z"
           style="fill:#414749;fill-opacity:1;fill-rule:nonzero;stroke:none"
           id="path987"
           inkscape:connector-curvature="0" /><path
           d="m 0.105,234.805 c 51.163,9.466 125.782,23.271 125.782,23.271 0,0 -79.693,78.07 -125.782,123.22 z"
           style="fill:none;stroke:#414749;stroke-width:1;stroke-linecap:butt;stroke-linejoin:miter;stroke-miterlimit:4;stroke-dasharray:none;stroke-opacity:1"
           id="path989"
           inkscape:connector-curvature="0" /><path
           d="m 0.105,381.296 c 46.089,-45.15 125.782,-123.22 125.782,-123.22 l 3.851,176.183 c 0,0 -82.544,-11.075 -129.633,-17.393 z"
           style="fill:#3f4547;fill-opacity:1;fill-rule:nonzero;stroke:none"
           id="path991"
           inkscape:connector-curvature="0" /><path
           d="m 0.105,381.296 c 46.089,-45.15 125.782,-123.22 125.782,-123.22 l 3.851,176.183 c 0,0 -82.544,-11.075 -129.633,-17.393 z"
           style="fill:none;stroke:#3f4547;stroke-width:1;stroke-linecap:butt;stroke-linejoin:miter;stroke-miterlimit:4;stroke-dasharray:none;stroke-opacity:1"
           id="path993"
           inkscape:connector-curvature="0" /><path
           d="M 129.738,434.259 125.887,258.076 261.858,376.094 Z"
           style="fill:#353a3a;fill-opacity:1;fill-rule:nonzero;stroke:none"
           id="path995"
           inkscape:connector-curvature="0" /><path
           d="M 129.738,434.259 125.887,258.076 261.858,376.094 Z"
           style="fill:none;stroke:#353a3a;stroke-width:1;stroke-linecap:butt;stroke-linejoin:miter;stroke-miterlimit:4;stroke-dasharray:none;stroke-opacity:1"
           id="path997"
           inkscape:connector-curvature="0" /><path
           d="M 261.858,376.094 125.887,258.076 240.691,264.877 Z"
           style="fill:#2d3232;fill-opacity:1;fill-rule:nonzero;stroke:none"
           id="path999"
           inkscape:connector-curvature="0" /><path
           d="M 261.858,376.094 125.887,258.076 240.691,264.877 Z"
           style="fill:none;stroke:#2d3232;stroke-width:1;stroke-linecap:butt;stroke-linejoin:miter;stroke-miterlimit:4;stroke-dasharray:none;stroke-opacity:1"
           id="path1001"
           inkscape:connector-curvature="0" /><path
           d="M 261.858,376.094 240.691,264.877 429.757,293.582 Z"
           style="fill:#262928;fill-opacity:1;fill-rule:nonzero;stroke:none"
           id="path1003"
           inkscape:connector-curvature="0" /><path
           d="M 261.858,376.094 240.691,264.877 429.757,293.582 Z"
           style="fill:none;stroke:#262928;stroke-width:1;stroke-linecap:butt;stroke-linejoin:miter;stroke-miterlimit:4;stroke-dasharray:none;stroke-opacity:1"
           id="path1005"
           inkscape:connector-curvature="0" /><path
           d="m 261.858,376.094 167.899,-82.512 29.7,153.168 z"
           style="fill:#232726;fill-opacity:1;fill-rule:nonzero;stroke:none"
           id="path1007"
           inkscape:connector-curvature="0" /><path
           d="m 261.858,376.094 167.899,-82.512 29.7,153.168 z"
           style="fill:none;stroke:#232726;stroke-width:1;stroke-linecap:butt;stroke-linejoin:miter;stroke-miterlimit:4;stroke-dasharray:none;stroke-opacity:1"
           id="path1009"
           inkscape:connector-curvature="0" /><path
           d="m 459.457,446.75 -29.7,-153.168 163.039,-5.826 z"
           style="fill:#1e211f;fill-opacity:1;fill-rule:nonzero;stroke:none"
           id="path1011"
           inkscape:connector-curvature="0" /><path
           d="m 459.457,446.75 -29.7,-153.168 163.039,-5.826 z"
           style="fill:none;stroke:#1e211f;stroke-width:1;stroke-linecap:butt;stroke-linejoin:miter;stroke-miterlimit:4;stroke-dasharray:none;stroke-opacity:1"
           id="path1013"
           inkscape:connector-curvature="0" /><path
           d="M 459.457,446.75 592.796,287.756 553.786,462.97 Z"
           style="fill:#262928;fill-opacity:1;fill-rule:nonzero;stroke:none"
           id="path1015"
           inkscape:connector-curvature="0" /><path
           d="M 459.457,446.75 592.796,287.756 553.786,462.97 Z"
           style="fill:none;stroke:#262928;stroke-width:1;stroke-linecap:butt;stroke-linejoin:miter;stroke-miterlimit:4;stroke-dasharray:none;stroke-opacity:1"
           id="path1017"
           inkscape:connector-curvature="0" /><path
           d="m 612.075,449.444 c -32.96,7.649 -58.289,13.526 -58.289,13.526 l 39.01,-175.214 c 0,0 7.476,5.638 19.279,14.538 z"
           style="fill:#222524;fill-opacity:1;fill-rule:nonzero;stroke:none"
           id="path1019"
           inkscape:connector-curvature="0" /><path
           d="m 612.075,449.444 c -32.96,7.649 -58.289,13.526 -58.289,13.526 l 39.01,-175.214 c 0,0 7.476,5.638 19.279,14.538 z"
           style="fill:none;stroke:#222524;stroke-width:1;stroke-linecap:butt;stroke-linejoin:miter;stroke-miterlimit:4;stroke-dasharray:none;stroke-opacity:1"
           id="path1021"
           inkscape:connector-curvature="0" /><path
           d="m 612.075,302.294 c -11.803,-8.9 -19.279,-14.538 -19.279,-14.538 0,0 7.649,-2.965 19.279,-7.474 z"
           style="fill:#1c1e1d;fill-opacity:1;fill-rule:nonzero;stroke:none"
           id="path1023"
           inkscape:connector-curvature="0" /><path
           d="m 612.075,302.294 c -11.803,-8.9 -19.279,-14.538 -19.279,-14.538 0,0 7.649,-2.965 19.279,-7.474 z"
           style="fill:none;stroke:#1c1e1d;stroke-width:1;stroke-linecap:butt;stroke-linejoin:miter;stroke-miterlimit:4;stroke-dasharray:none;stroke-opacity:1"
           id="path1025"
           inkscape:connector-curvature="0" /><path
           d="m 0.105,130.544 c 30.65,31.076 125.782,127.532 125.782,127.532 0,0 -74.619,-13.805 -125.782,-23.271 z"
           style="fill:#3a3f40;fill-opacity:1;fill-rule:nonzero;stroke:none"
           id="path1027"
           inkscape:connector-curvature="0" /><path
           d="m 0.105,130.544 c 30.65,31.076 125.782,127.532 125.782,127.532 0,0 -74.619,-13.805 -125.782,-23.271 z"
           style="fill:none;stroke:#3a3f40;stroke-width:1;stroke-linecap:butt;stroke-linejoin:miter;stroke-miterlimit:4;stroke-dasharray:none;stroke-opacity:1"
           id="path1029"
           inkscape:connector-curvature="0" /><path
           d="m 0.105,121.577 c 30.909,1.833 127.481,7.562 127.481,7.562 l -1.699,128.937 c 0,0 -95.132,-96.456 -125.782,-127.532 z"
           style="fill:#323737;fill-opacity:1;fill-rule:nonzero;stroke:none"
           id="path1031"
           inkscape:connector-curvature="0" /><path
           d="m 0.105,121.577 c 30.909,1.833 127.481,7.562 127.481,7.562 l -1.699,128.937 c 0,0 -95.132,-96.456 -125.782,-127.532 z"
           style="fill:none;stroke:#323737;stroke-width:1;stroke-linecap:butt;stroke-linejoin:miter;stroke-miterlimit:4;stroke-dasharray:none;stroke-opacity:1"
           id="path1033"
           inkscape:connector-curvature="0" /><path
           d="m 125.887,258.076 1.699,-128.937 113.105,135.738 z"
           style="fill:#2d3131;fill-opacity:1;fill-rule:nonzero;stroke:none"
           id="path1035"
           inkscape:connector-curvature="0" /><path
           d="m 125.887,258.076 1.699,-128.937 113.105,135.738 z"
           style="fill:none;stroke:#2d3131;stroke-width:1;stroke-linecap:butt;stroke-linejoin:miter;stroke-miterlimit:4;stroke-dasharray:none;stroke-opacity:1"
           id="path1037"
           inkscape:connector-curvature="0" /><path
           d="M 240.691,264.877 127.586,129.139 302.237,141.471 Z"
           style="fill:#232726;fill-opacity:1;fill-rule:nonzero;stroke:none"
           id="path1039"
           inkscape:connector-curvature="0" /><path
           d="M 240.691,264.877 127.586,129.139 302.237,141.471 Z"
           style="fill:none;stroke:#232726;stroke-width:1;stroke-linecap:butt;stroke-linejoin:miter;stroke-miterlimit:4;stroke-dasharray:none;stroke-opacity:1"
           id="path1041"
           inkscape:connector-curvature="0" /><path
           d="m 240.691,264.877 61.546,-123.406 127.52,152.111 z"
           style="fill:#1e211f;fill-opacity:1;fill-rule:nonzero;stroke:none"
           id="path1043"
           inkscape:connector-curvature="0" /><path
           d="m 240.691,264.877 61.546,-123.406 127.52,152.111 z"
           style="fill:none;stroke:#1e211f;stroke-width:1;stroke-linecap:butt;stroke-linejoin:miter;stroke-miterlimit:4;stroke-dasharray:none;stroke-opacity:1"
           id="path1045"
           inkscape:connector-curvature="0" /><path
           d="m 429.757,293.582 -127.52,-152.111 106.53,-6.442 z"
           style="fill:#252120;fill-opacity:1;fill-rule:nonzero;stroke:none"
           id="path1047"
           inkscape:connector-curvature="0" /><path
           d="m 429.757,293.582 -127.52,-152.111 106.53,-6.442 z"
           style="fill:none;stroke:#252120;stroke-width:1;stroke-linecap:butt;stroke-linejoin:miter;stroke-miterlimit:4;stroke-dasharray:none;stroke-opacity:1"
           id="path1049"
           inkscape:connector-curvature="0" /><path
           d="M 429.757,293.582 408.767,135.029 543.289,99.359 Z"
           style="fill:#262121;fill-opacity:1;fill-rule:nonzero;stroke:none"
           id="path1051"
           inkscape:connector-curvature="0" /><path
           d="M 429.757,293.582 408.767,135.029 543.289,99.359 Z"
           style="fill:none;stroke:#262121;stroke-width:1;stroke-linecap:butt;stroke-linejoin:miter;stroke-miterlimit:4;stroke-dasharray:none;stroke-opacity:1"
           id="path1053"
           inkscape:connector-curvature="0" /><path
           d="M 429.757,293.582 543.289,99.359 592.796,287.756 Z"
           style="fill:#252120;fill-opacity:1;fill-rule:nonzero;stroke:none"
           id="path1055"
           inkscape:connector-curvature="0" /><path
           d="M 429.757,293.582 543.289,99.359 592.796,287.756 Z"
           style="fill:none;stroke:#252120;stroke-width:1;stroke-linecap:butt;stroke-linejoin:miter;stroke-miterlimit:4;stroke-dasharray:none;stroke-opacity:1"
           id="path1057"
           inkscape:connector-curvature="0" /><path
           d="m 612.075,280.282 c -11.63,4.509 -19.279,7.474 -19.279,7.474 L 543.289,99.359 c 0,0 31.762,23.814 68.786,51.573 z"
           style="fill:#262221;fill-opacity:1;fill-rule:nonzero;stroke:none"
           id="path1059"
           inkscape:connector-curvature="0" /><path
           d="m 612.075,280.282 c -11.63,4.509 -19.279,7.474 -19.279,7.474 L 543.289,99.359 c 0,0 31.762,23.814 68.786,51.573 z"
           style="fill:none;stroke:#262221;stroke-width:1;stroke-linecap:butt;stroke-linejoin:miter;stroke-miterlimit:4;stroke-dasharray:none;stroke-opacity:1"
           id="path1061"
           inkscape:connector-curvature="0" /><path
           d="m 612.075,150.932 c -37.024,-27.759 -68.786,-51.573 -68.786,-51.573 0,0 30.341,1.719 68.786,3.897 z"
           style="fill:#252121;fill-opacity:1;fill-rule:nonzero;stroke:none"
           id="path1063"
           inkscape:connector-curvature="0" /><path
           d="m 612.075,150.932 c -37.024,-27.759 -68.786,-51.573 -68.786,-51.573 0,0 30.341,1.719 68.786,3.897 z"
           style="fill:none;stroke:#252121;stroke-width:1;stroke-linecap:butt;stroke-linejoin:miter;stroke-miterlimit:4;stroke-dasharray:none;stroke-opacity:1"
           id="path1065"
           inkscape:connector-curvature="0" /><path
           d="m 147.792,1.429 c 10.299,3.963 16.554,6.37 16.554,6.37 0,0 -128.096,83.526 -164.241,107.096 V 1.429 Z"
           style="fill:#2e3333;fill-opacity:1;fill-rule:nonzero;stroke:none"
           id="path1067"
           inkscape:connector-curvature="0" /><path
           d="m 147.792,1.429 c 10.299,3.963 16.554,6.37 16.554,6.37 0,0 -128.096,83.526 -164.241,107.096 V 1.429 Z"
           style="fill:none;stroke:#2e3333;stroke-width:1;stroke-linecap:butt;stroke-linejoin:miter;stroke-miterlimit:4;stroke-dasharray:none;stroke-opacity:1"
           id="path1069"
           inkscape:connector-curvature="0" /><path
           d="M 0.105,114.895 C 36.25,91.325 164.346,7.799 164.346,7.799 l -36.76,121.34 c 0,0 -96.572,-5.729 -127.481,-7.562 z"
           style="fill:#2b2f2e;fill-opacity:1;fill-rule:nonzero;stroke:none"
           id="path1071"
           inkscape:connector-curvature="0" /><path
           d="M 0.105,114.895 C 36.25,91.325 164.346,7.799 164.346,7.799 l -36.76,121.34 c 0,0 -96.572,-5.729 -127.481,-7.562 z"
           style="fill:none;stroke:#2b2f2e;stroke-width:1;stroke-linecap:butt;stroke-linejoin:miter;stroke-miterlimit:4;stroke-dasharray:none;stroke-opacity:1"
           id="path1073"
           inkscape:connector-curvature="0" /><path
           d="M 127.586,129.139 164.346,7.799 242.739,3.367 Z"
           style="fill:#202322;fill-opacity:1;fill-rule:nonzero;stroke:none"
           id="path1075"
           inkscape:connector-curvature="0" /><path
           d="M 127.586,129.139 164.346,7.799 242.739,3.367 Z"
           style="fill:none;stroke:#202322;stroke-width:1;stroke-linecap:butt;stroke-linejoin:miter;stroke-miterlimit:4;stroke-dasharray:none;stroke-opacity:1"
           id="path1077"
           inkscape:connector-curvature="0" /><path
           d="M 127.586,129.139 242.739,3.367 302.237,141.471 Z"
           style="fill:#1d1f1e;fill-opacity:1;fill-rule:nonzero;stroke:none"
           id="path1079"
           inkscape:connector-curvature="0" /><path
           d="M 127.586,129.139 242.739,3.367 302.237,141.471 Z"
           style="fill:none;stroke:#1d1f1e;stroke-width:1;stroke-linecap:butt;stroke-linejoin:miter;stroke-miterlimit:4;stroke-dasharray:none;stroke-opacity:1"
           id="path1081"
           inkscape:connector-curvature="0" /><path
           d="M 425.787,1.429 C 389.294,42.793 302.237,141.471 302.237,141.471 L 242.739,3.367 c 0,0 7.432,-0.742 19.423,-1.938 z"
           style="fill:#262121;fill-opacity:1;fill-rule:nonzero;stroke:none"
           id="path1083"
           inkscape:connector-curvature="0" /><path
           d="M 425.787,1.429 C 389.294,42.793 302.237,141.471 302.237,141.471 L 242.739,3.367 c 0,0 7.432,-0.742 19.423,-1.938 z"
           style="fill:none;stroke:#262121;stroke-width:1;stroke-linecap:butt;stroke-linejoin:miter;stroke-miterlimit:4;stroke-dasharray:none;stroke-opacity:1"
           id="path1085"
           inkscape:connector-curvature="0" /><path
           d="m 437.706,1.429 c -8.685,40.095 -28.939,133.6 -28.939,133.6 l -106.53,6.442 c 0,0 87.057,-98.678 123.55,-140.042 z"
           style="fill:#242021;fill-opacity:1;fill-rule:nonzero;stroke:none"
           id="path1087"
           inkscape:connector-curvature="0" /><path
           d="m 437.706,1.429 c -8.685,40.095 -28.939,133.6 -28.939,133.6 l -106.53,6.442 c 0,0 87.057,-98.678 123.55,-140.042 z"
           style="fill:none;stroke:#242021;stroke-width:1;stroke-linecap:butt;stroke-linejoin:miter;stroke-miterlimit:4;stroke-dasharray:none;stroke-opacity:1"
           id="path1089"
           inkscape:connector-curvature="0" /><path
           d="m 457.308,1.429 c 28.546,32.514 85.981,97.93 85.981,97.93 l -134.522,35.67 c 0,0 20.254,-93.505 28.939,-133.6 z"
           style="fill:#231f20;fill-opacity:1;fill-rule:nonzero;stroke:none"
           id="path1091"
           inkscape:connector-curvature="0" /><path
           d="m 457.308,1.429 c 28.546,32.514 85.981,97.93 85.981,97.93 l -134.522,35.67 c 0,0 20.254,-93.505 28.939,-133.6 z"
           style="fill:none;stroke:#231f20;stroke-width:1;stroke-linecap:butt;stroke-linejoin:miter;stroke-miterlimit:4;stroke-dasharray:none;stroke-opacity:1"
           id="path1093"
           inkscape:connector-curvature="0" /><path
           d="m 541.656,1.429 c 0.735,44.055 1.633,97.93 1.633,97.93 0,0 -57.435,-65.416 -85.981,-97.93 z"
           style="fill:#231f20;fill-opacity:1;fill-rule:nonzero;stroke:none"
           id="path1095"
           inkscape:connector-curvature="0" /><path
           d="m 541.656,1.429 c 0.735,44.055 1.633,97.93 1.633,97.93 0,0 -57.435,-65.416 -85.981,-97.93 z"
           style="fill:none;stroke:#231f20;stroke-width:1;stroke-linecap:butt;stroke-linejoin:miter;stroke-miterlimit:4;stroke-dasharray:none;stroke-opacity:1"
           id="path1097"
           inkscape:connector-curvature="0" /><path
           d="m 612.075,1.429 v 32.995 c -35.426,33.442 -68.786,64.935 -68.786,64.935 0,0 -0.898,-53.875 -1.633,-97.93 z"
           style="fill:#231f20;fill-opacity:1;fill-rule:nonzero;stroke:none"
           id="path1099"
           inkscape:connector-curvature="0" /><path
           d="m 612.075,1.429 v 32.995 c -35.426,33.442 -68.786,64.935 -68.786,64.935 0,0 -0.898,-53.875 -1.633,-97.93 z"
           style="fill:none;stroke:#231f20;stroke-width:1;stroke-linecap:butt;stroke-linejoin:miter;stroke-miterlimit:4;stroke-dasharray:none;stroke-opacity:1"
           id="path1101"
           inkscape:connector-curvature="0" /><path
           d="m 612.075,103.256 c -38.445,-2.178 -68.786,-3.897 -68.786,-3.897 0,0 33.36,-31.493 68.786,-64.935 z"
           style="fill:#231f20;fill-opacity:1;fill-rule:nonzero;stroke:none"
           id="path1103"
           inkscape:connector-curvature="0" /><path
           d="m 612.075,103.256 c -38.445,-2.178 -68.786,-3.897 -68.786,-3.897 0,0 33.36,-31.493 68.786,-64.935 z"
           style="fill:none;stroke:#231f20;stroke-width:1;stroke-linecap:butt;stroke-linejoin:miter;stroke-miterlimit:4;stroke-dasharray:none;stroke-opacity:1"
           id="path1105"
           inkscape:connector-curvature="0" /><path
           d="m 252.667,1.429 c -6.358,1.241 -9.928,1.938 -9.928,1.938 0,0 -2.652,-0.691 -7.438,-1.938 z"
           style="fill:#201f1e;fill-opacity:1;fill-rule:nonzero;stroke:none"
           id="path1107"
           inkscape:connector-curvature="0" /><path
           d="m 252.667,1.429 c -6.358,1.241 -9.928,1.938 -9.928,1.938 0,0 -2.652,-0.691 -7.438,-1.938 z"
           style="fill:none;stroke:#201f1e;stroke-width:1;stroke-linecap:butt;stroke-linejoin:miter;stroke-miterlimit:4;stroke-dasharray:none;stroke-opacity:1"
           id="path1109"
           inkscape:connector-curvature="0" /><path
           d="m 235.301,1.429 c 4.786,1.247 7.438,1.938 7.438,1.938 l -78.393,4.432 c 0,0 -6.255,-2.407 -16.554,-6.37 z"
           style="fill:#262a2a;fill-opacity:1;fill-rule:nonzero;stroke:none"
           id="path1111"
           inkscape:connector-curvature="0" /><path
           d="m 235.301,1.429 c 4.786,1.247 7.438,1.938 7.438,1.938 l -78.393,4.432 c 0,0 -6.255,-2.407 -16.554,-6.37 z"
           style="fill:none;stroke:#262a2a;stroke-width:1;stroke-linecap:butt;stroke-linejoin:miter;stroke-miterlimit:4;stroke-dasharray:none;stroke-opacity:1"
           id="path1113"
           inkscape:connector-curvature="0" /><path
           d="m 262.162,1.429 c -11.991,1.196 -19.423,1.938 -19.423,1.938 0,0 3.57,-0.697 9.928,-1.938 z"
           style="fill:#231f20;fill-opacity:1;fill-rule:nonzero;stroke:none"
           id="path1115"
           inkscape:connector-curvature="0" /><path
           d="m 262.162,1.429 c -11.991,1.196 -19.423,1.938 -19.423,1.938 0,0 3.57,-0.697 9.928,-1.938 z"
           style="fill:none;stroke:#231f20;stroke-width:1;stroke-linecap:butt;stroke-linejoin:miter;stroke-miterlimit:4;stroke-dasharray:none;stroke-opacity:1"
           id="path1117"
           inkscape:connector-curvature="0" /></g></g></g></svg>